<svg width="40" height="40" viewBox="0 0 40 40" fill="none" xmlns="http://www.w3.org/2000/svg">
    <circle cx="20" cy="20" r="20" fill="#3F51B5"/>
    <path fill-rule="evenodd" clip-rule="evenodd" d="M38.4395 27.7584C39.4445 25.3727 40 22.7512 40 20C40 8.9543 31.0457 0 20 0C18.8496 0 17.722 0.0971219 16.6247 0.283613C16.6247 0.283608 16.6247 0.283605 16.6247 0.2836C14.5461 0.636891 12.5767 1.31091 10.7692 2.25296C10.7692 2.25296 10.7692 2.25295 10.7692 2.25295C10.392 2.44954 10.0219 2.6578 9.6593 2.87726C9.6593 2.87725 9.6593 2.87724 9.6593 2.87724C5.15898 5.60088 1.8187 10.0487 0.554169 15.3049L0.554181 15.3049C0.191904 16.8108 0 18.383 0 20C0 31.0457 8.9543 40 20 40C20.7335 40 21.4578 39.9605 22.1708 39.8835C22.1498 39.8858 22.1287 39.8881 22.1076 39.8903C19.6679 38.2366 16.1395 36.3366 11.969 35.4652C11.1414 35.2938 12.0433 32.2079 14.4271 32.5811C15.0558 32.6795 16.1226 33.0259 17.2351 33.3872C19.0132 33.9647 20.9079 34.58 21.3178 34.2814C21.8324 33.9062 22.4458 31.3096 21.3068 26.4331L19.015 16.6293C18.9298 16.1898 19.0187 15.7346 19.2633 15.3595C19.5078 14.9843 19.8889 14.7183 20.3264 14.6174C20.7639 14.5165 21.2239 14.5886 21.6096 14.8184C21.9954 15.0482 22.2769 15.4179 22.3951 15.8499L24.3962 24.4051C24.5902 25.2397 24.9344 25.5986 25.3852 25.5016C25.787 25.417 25.9052 25.1775 25.7949 24.3778L23.9792 13.9934C23.9398 13.7698 23.9451 13.5408 23.9946 13.3194C24.0442 13.0979 24.137 12.8885 24.2679 12.7029C24.3988 12.5174 24.5652 12.3594 24.7575 12.2381C24.9497 12.1167 25.1642 12.0343 25.3886 11.9956C25.6131 11.9562 25.8432 11.9614 26.0658 12.0108C26.2884 12.0602 26.499 12.153 26.6856 12.2837C26.8722 12.4144 27.0311 12.5805 27.1532 12.7725C27.2753 12.9645 27.3581 13.1786 27.397 13.4025L29.1243 23.2771C29.2777 24.1455 29.5089 24.6241 30.0129 24.4986C30.3157 24.4236 30.3638 23.9872 30.3474 23.5975L29.5055 14.2989C29.4783 14.0692 29.4975 13.8365 29.5621 13.6145C29.6267 13.3925 29.7353 13.1857 29.8815 13.0063C30.0277 12.827 30.2086 12.6786 30.4134 12.5702C30.6182 12.4617 30.8428 12.3952 31.0739 12.3747C31.3051 12.3542 31.538 12.3801 31.759 12.4508C31.9801 12.5216 32.1847 12.6357 32.3608 12.7865C32.5369 12.9373 32.6809 13.1217 32.7843 13.3288C32.8877 13.5359 32.9484 13.7615 32.9629 13.9923L33.7406 22.5621C33.853 23.8213 34.0621 24.3014 34.5618 24.2573C35.0714 24.2147 35.1114 23.8088 35.0961 23.4663L34.7725 16.1639C34.7757 15.761 34.934 15.3748 35.2147 15.0851C35.4954 14.7953 35.8772 14.6241 36.2812 14.6067C36.6852 14.5894 37.0807 14.7272 37.3861 14.9918C37.6914 15.2564 37.8833 15.6275 37.9222 16.0287L38.2725 23.9769L38.2739 23.9788L38.2736 23.9805L38.4395 27.7584ZM0.554181 15.3049L2.55064 20.1166C2.6843 20.3962 2.92065 20.6139 3.21093 20.7247C3.5012 20.8355 3.82326 20.8311 4.11065 20.7122C4.39804 20.5933 4.62885 20.3692 4.75544 20.0859C4.88204 19.8027 4.89478 19.482 4.79102 19.19L2.63549 13.9984C2.53426 13.7549 2.45634 13.4511 2.81337 13.2862C3.16287 13.1228 3.44031 13.4147 3.85288 14.295L6.67017 20.283C6.74134 20.4459 6.8446 20.593 6.97383 20.7154C7.10306 20.8378 7.25565 20.9332 7.42259 20.9958C7.58952 21.0584 7.7674 21.0871 7.94573 21.08C8.12405 21.0729 8.2992 21.0303 8.46082 20.9547C8.62243 20.8791 8.76724 20.7719 8.88669 20.6396C9.00614 20.5074 9.09779 20.3526 9.15625 20.1845C9.2147 20.0164 9.23876 19.8384 9.227 19.661C9.21525 19.4835 9.16792 19.3103 9.08782 19.1515L6.03234 12.6539C5.91797 12.3766 5.8379 12.0486 6.03692 11.9148C6.36813 11.6914 6.66114 11.9764 7.0005 12.5636L10.8473 19.2444C10.9343 19.396 11.0505 19.5288 11.1893 19.6354C11.328 19.7421 11.4866 19.8203 11.6558 19.8656C11.825 19.911 12.0017 19.9226 12.1755 19.8997C12.3494 19.8768 12.517 19.82 12.6689 19.7325C12.8208 19.6455 12.9541 19.5295 13.0611 19.3912C13.1681 19.2529 13.2467 19.0949 13.2925 18.9264C13.3382 18.7579 13.3502 18.5821 13.3278 18.4091C13.3053 18.236 13.2488 18.0691 13.1616 17.918L9.11668 10.892C8.82653 10.3431 8.84893 10.1389 9.117 9.9721C9.41725 9.78339 9.76035 9.95211 10.1202 10.5042L13.8177 16.1596C14.0167 16.4406 14.3174 16.6337 14.6567 16.6982C14.9959 16.7628 15.3472 16.6938 15.6368 16.5057C15.9264 16.3177 16.1318 16.0252 16.2098 15.6898C16.2877 15.3543 16.2323 15.002 16.055 14.7068L11.8189 8.2257C10.0505 5.51897 9.59755 3.64842 9.6593 2.87726C5.15898 5.60091 1.81871 10.0487 0.554181 15.3049ZM10.7692 2.25295C11.3751 2.18397 12.1664 2.15607 12.931 2.12911C13.83 2.09741 14.692 2.06702 15.1723 1.97268C16.1553 1.77956 16.5609 0.971509 16.6247 0.283613C14.5461 0.636903 12.5767 1.31092 10.7692 2.25295Z" fill="white"/>
</svg>
